<svg width="206.53254394531248px" height="122.021240234375px" xmlns="http://www.w3.org/2000/svg" viewBox="146.73372802734377 13.9893798828125 206.53254394531248 122.021240234375" style="background: rgb(177, 14, 30);" preserveAspectRatio="xMidYMid"><defs><filter id="editing-hole" x="-100%" y="-100%" width="300%" height="300%"><feFlood flood-color="#cccccc" result="black"></feFlood><feMorphology operator="dilate" radius="2" in="SourceGraphic" result="erode"></feMorphology><feGaussianBlur in="erode" stdDeviation="4" result="blur"></feGaussianBlur><feOffset in="blur" dx="2" dy="2" result="offset"></feOffset><feComposite operator="atop" in="offset" in2="black" result="merge"></feComposite><feComposite operator="in" in="merge" in2="SourceGraphic" result="inner-shadow"></feComposite></filter></defs><g filter="url(#editing-hole)"><g transform="translate(179.98499584197998, 104.13718795776367)"><path d="M18.30-32.45L18.30-32.45Q25.54-32.45 29.22-28.19L29.22-28.19L29.22-28.19Q32.90-23.94 32.90-16.38L32.90-16.38L32.90-16.38Q32.83-6.66 28.42-2.85L28.42-2.85L28.42-2.85Q24 0.96 17.92 0.96L17.92 0.96L17.92 0.96Q5.12 0.96 5.12-5.44L5.12-5.44L5.12-45.44L9.73-45.44L9.73-30.59L9.73-30.59Q11.71-31.36 14.18-31.90L14.18-31.90L14.18-31.90Q16.64-32.45 18.30-32.45L18.30-32.45ZM17.28-3.26L17.28-3.26Q23.49-3.26 25.76-6.78L25.76-6.78L25.76-6.78Q28.03-10.30 28.03-16.38L28.03-16.38L28.03-16.38Q28.03-21.89 25.66-25.06L25.66-25.06L25.66-25.06Q23.30-28.22 18.30-28.22L18.30-28.22L18.30-28.22Q16.19-28.22 13.92-27.65L13.92-27.65L13.92-27.65Q11.65-27.07 9.73-25.98L9.73-25.98L9.73-6.53L9.73-6.53Q9.73-4.67 11.97-3.97L11.97-3.97L11.97-3.97Q14.21-3.26 17.28-3.26L17.28-3.26ZM54.91 0.96L54.91 0.96Q48.51 0.96 45.02-2.34L45.02-2.34L45.02-2.34Q41.54-5.63 41.54-11.71L41.54-11.71L41.54-31.94L46.14-31.94L46.14-12.74L46.14-12.74Q46.14-7.87 48.26-5.60L48.26-5.60L48.26-5.60Q50.37-3.33 54.91-3.33L54.91-3.33L54.91-3.33Q59.39-3.33 61.54-5.60L61.54-5.60L61.54-5.60Q63.68-7.87 63.68-12.74L63.68-12.74L63.68-31.94L68.29-31.94L68.29-11.71L68.29-11.71Q68.29-5.63 64.80-2.34L64.80-2.34L64.80-2.34Q61.31 0.96 54.91 0.96L54.91 0.96ZM87.55 0.96L87.55 0.96Q84.29 0.96 81.98 0.32L81.98 0.32L81.98 0.32Q79.68-0.32 76.93-1.73L76.93-1.73L76.93-6.59L76.93-6.59Q80.19-4.74 82.27-4L82.27-4L82.27-4Q84.35-3.26 87.23-3.26L87.23-3.26L87.23-3.26Q90.43-3.26 92.45-4.67L92.45-4.67L92.45-4.67Q94.46-6.08 94.46-8.32L94.46-8.32L94.46-8.32Q94.46-10.30 93.25-11.30L93.25-11.30L93.25-11.30Q92.03-12.29 89.41-13.31L89.41-13.31L87.74-14.02L87.74-14.02Q84.10-15.04 82.08-15.87L82.08-15.87L82.08-15.87Q80.06-16.70 78.56-18.50L78.56-18.50L78.56-18.50Q77.06-20.29 77.06-23.36L77.06-23.36L77.06-23.36Q77.06-26.43 78.66-28.48L78.66-28.48L78.66-28.48Q80.26-30.53 82.82-31.52L82.82-31.52L82.82-31.52Q85.38-32.51 88.19-32.51L88.19-32.51L88.19-32.51Q90.75-32.51 92.51-31.94L92.51-31.94L92.51-31.94Q94.27-31.36 97.34-30.02L97.34-30.02L97.34-25.41L97.34-25.41Q94.14-27.01 92.45-27.65L92.45-27.65L92.45-27.65Q90.75-28.29 88.45-28.29L88.45-28.29L88.45-28.29Q85.63-28.29 83.65-27.17L83.65-27.17L83.65-27.17Q81.66-26.05 81.66-24L81.66-24L81.66-24Q81.66-22.34 82.66-21.28L82.66-21.28L82.66-21.28Q83.65-20.22 85.15-19.62L85.15-19.62L85.15-19.62Q86.66-19.01 89.22-18.30L89.22-18.30L89.22-18.30Q92.42-17.28 94.30-16.45L94.30-16.45L94.30-16.45Q96.19-15.62 97.63-13.79L97.63-13.79L97.63-13.79Q99.07-11.97 99.07-8.90L99.07-8.90L99.07-8.90Q99.07-5.63 97.41-3.42L97.41-3.42L97.41-3.42Q95.74-1.22 93.09-0.13L93.09-0.13L93.09-0.13Q90.43 0.96 87.55 0.96L87.55 0.96ZM130.30-31.94L134.91-31.94L121.22 3.14L121.22 3.14Q119.23 8.26 116.58 10.30L116.58 10.30L116.58 10.30Q113.92 12.35 111.17 12.35L111.17 12.35L111.17 12.35Q109.63 12.35 108.16 11.78L108.16 11.78L108.16 7.55L108.16 7.55Q109.44 8.13 110.91 8.13L110.91 8.13L110.91 8.13Q113.66 8.13 115.20 6.14L115.20 6.14L115.20 6.14Q116.74 4.16 118.08 0.13L118.08 0.13L104.83-31.94L110.08-31.94L120.19-5.89L130.30-31.94Z" fill="#ffffff"></path></g></g><style>text {
  font-size: 64px;
  font-family: Arial Black;
  dominant-baseline: central;
  text-anchor: middle;
}</style></svg>