<svg width="177.6324951171875px" height="122.021240234375px" xmlns="http://www.w3.org/2000/svg" viewBox="161.18375244140626 13.9893798828125 177.6324951171875 122.021240234375" style="background: rgb(0, 100, 53);" preserveAspectRatio="xMidYMid"><defs><filter id="editing-hole" x="-100%" y="-100%" width="300%" height="300%"><feFlood flood-color="#000000" result="black"></feFlood><feMorphology operator="dilate" radius="2" in="SourceGraphic" result="erode"></feMorphology><feGaussianBlur in="erode" stdDeviation="4" result="blur"></feGaussianBlur><feOffset in="blur" dx="2" dy="2" result="offset"></feOffset><feComposite operator="atop" in="offset" in2="black" result="merge"></feComposite><feComposite operator="in" in="merge" in2="SourceGraphic" result="inner-shadow"></feComposite></filter></defs><g filter="url(#editing-hole)"><g transform="translate(192.52760076522827, 98.41218757629395)"><path d="M8.06 0L8.06-27.71L2.56-27.71L2.56-31.94L8.06-31.94L8.06-33.66L8.06-33.66Q8.06-38.98 9.92-41.57L9.92-41.57L9.92-41.57Q11.78-44.16 13.92-44.77L13.92-44.77L13.92-44.77Q16.06-45.38 18.37-45.38L18.37-45.38L18.37-45.38Q20.10-45.38 21.44-44.99L21.44-44.99L21.44-40.90L21.44-40.90Q20.16-41.15 19.14-41.15L19.14-41.15L19.14-41.15Q17.09-41.15 15.81-40.77L15.81-40.77L15.81-40.77Q14.53-40.38 13.60-38.78L13.60-38.78L13.60-38.78Q12.67-37.18 12.67-33.73L12.67-33.73L12.67-31.94L21.44-31.94L21.44-27.71L12.67-27.71L12.67 0L8.06 0ZM29.12 0L29.12-29.38L29.12-29.38Q31.55-30.40 35.55-31.46L35.55-31.46L35.55-31.46Q39.55-32.51 43.84-32.51L43.84-32.51L43.84-32.51Q44.48-32.51 45.89-32.13L45.89-32.13L45.89-28.03L45.89-28.03Q44.35-28.22 42.82-28.22L42.82-28.22L42.82-28.22Q40.70-28.22 38.91-27.97L38.91-27.97L38.91-27.97Q37.12-27.71 33.73-27.14L33.73-27.14L33.73 0L29.12 0ZM63.42-32.51L63.42-32.51Q70.72-32.51 74.11-27.78L74.11-27.78L74.11-27.78Q77.50-23.04 77.38-15.17L77.38-15.17L54.08-15.17L54.08-15.17Q54.08-9.41 56.77-6.34L56.77-6.34L56.77-6.34Q59.46-3.26 64.45-3.26L64.45-3.26L64.45-3.26Q70.85-3.26 75.39-6.02L75.39-6.02L75.39-1.28L75.39-1.28Q70.72 0.96 64.19 0.96L64.19 0.96L64.19 0.96Q57.22 0.96 53.31-3.36L53.31-3.36L53.31-3.36Q49.41-7.68 49.41-16L49.41-16L49.41-16Q49.41-24.13 53.09-28.32L53.09-28.32L53.09-28.32Q56.77-32.51 63.42-32.51L63.42-32.51ZM63.42-28.29L63.42-28.29Q59.20-28.29 57.02-26.34L57.02-26.34L57.02-26.34Q54.85-24.38 54.27-19.39L54.27-19.39L72.51-19.39L72.51-19.39Q72.19-23.87 69.98-26.08L69.98-26.08L69.98-26.08Q67.78-28.29 63.42-28.29L63.42-28.29ZM98.43-32.51L98.43-32.51Q105.73-32.51 109.12-27.78L109.12-27.78L109.12-27.78Q112.51-23.04 112.38-15.17L112.38-15.17L89.09-15.17L89.09-15.17Q89.09-9.41 91.78-6.34L91.78-6.34L91.78-6.34Q94.46-3.26 99.46-3.26L99.46-3.26L99.46-3.26Q105.86-3.26 110.40-6.02L110.40-6.02L110.40-1.28L110.40-1.28Q105.73 0.96 99.20 0.96L99.20 0.96L99.20 0.96Q92.22 0.96 88.32-3.36L88.32-3.36L88.32-3.36Q84.42-7.68 84.42-16L84.42-16L84.42-16Q84.42-24.13 88.10-28.32L88.10-28.32L88.10-28.32Q91.78-32.51 98.43-32.51L98.43-32.51ZM98.43-28.29L98.43-28.29Q94.21-28.29 92.03-26.34L92.03-26.34L92.03-26.34Q89.86-24.38 89.28-19.39L89.28-19.39L107.52-19.39L107.52-19.39Q107.20-23.87 104.99-26.08L104.99-26.08L104.99-26.08Q102.78-28.29 98.43-28.29L98.43-28.29Z" fill="#ffffff"></path></g></g><style>text {
  font-size: 64px;
  font-family: Arial Black;
  dominant-baseline: central;
  text-anchor: middle;
}</style></svg>